<mxfile host="app.diagrams.net" modified="2024-04-22T22:38:22.454Z" agent="Mozilla/5.0 (X11; Linux x86_64) AppleWebKit/537.36 (KHTML, like Gecko) Chrome/123.0.0.0 Safari/537.36" version="24.2.8" etag="cWhZU6mgB0qMR7TR3cXO" type="github">
  <diagram name="Page-1" id="4ynKOQOio-5trCg3kK-a">
    <mxGraphModel>
      <root>
        <mxCell id="0" />
        <mxCell id="1" parent="0" />
      </root>
    </mxGraphModel>
  </diagram>
</mxfile>
